<svg version="1.1" preserveAspectRatio="none" xmlns="http://www.w3.org/2000/svg" wilih="500" height="500" viewBox="0 0 500 500"><rect wilih="100%" height="100%" fill="#FFFFFF" fill-opacity="1"/><svg viewBox="213.6536 667.1105 503.8201 174" wilih="333" height="115.00533623013453" x="83.5px" y="192.4973px" xmlns="http://www.w3.org/2000/svg" xmlns:xlink="http://www.w3.org/1999/xlink" preserveAspectRatio="none"><defs></defs><style>.companyName {fill:#4D4D4D;fill-opacity:1;}.icon1 {fill:#FF834F;fill-opacity:1;}.icon2 {fill:#FF4949;fill-opacity:1;}.icon3 {fill:#FFAE78;fill-opacity:1;}.icon3-str {stroke:#FFAE78;stroke-opacity:1;}.shapeStroke-str {stroke:#313131;stroke-opacity:1;}</style><g opacity="1" transform="rotate(0 213.6536 679.1105)">
<svg wilih="208.385" height="150" x="213.6536" y="679.1105" version="1.1" preserveAspectRatio="none" viewBox="1.715000033378601 14.691997528076172 96.28500366210938 69.30799865722656">
  <g transform="matrix(1 0 0 1 0 0)" class="icon1"><g><g><path d="M41.615,48.853L24.597,21.852c-6.241,3.855-11.529,9.098-15.448,15.295l25.56,16.11    C36.701,51.39,39.038,49.887,41.615,48.853z"></path><path d="M31.443,57.095L3.259,50.703c-1.006,3.876-1.544,7.942-1.544,12.131c0,3.542,0.394,6.991,1.119,10.314l24.956-5.659    C28.12,63.664,29.418,60.116,31.443,57.095z"></path><path d="M4.258,78.27c0.667,1.97,1.449,3.885,2.354,5.73h86.489c0.905-1.846,1.689-3.761,2.355-5.73L49.858,67.862L4.258,78.27z"></path><path d="M96.456,50.703l-28.184,6.392c2.025,3.021,3.322,6.569,3.652,10.396l24.956,5.658C97.605,69.825,98,66.376,98,62.834    C98,58.646,97.462,54.579,96.456,50.703z"></path><path d="M65.006,53.257l25.56-16.11c-3.918-6.198-9.207-11.439-15.448-15.295L58.101,48.853    C60.679,49.885,63.015,51.388,65.006,53.257z"></path><path d="M49.858,47.26c1.235,0,2.445,0.106,3.625,0.301l7.175-31.637c-3.474-0.796-7.086-1.232-10.8-1.232    c-3.715,0-7.327,0.436-10.801,1.232l7.175,31.637C47.413,47.366,48.623,47.26,49.858,47.26z"></path></g></g></g>
</svg>
</g><g opacity="1" transform="rotate(0 486.0386 694.1105)">
<svg wilih="231.4351" height="120" x="486.0386" y="694.1105" version="1.1" preserveAspectRatio="none" viewBox="3.32 -28 54 28">
  <g transform="matrix(1 0 0 1 0 0)" class="companyName"><path id="id-D6z1nYkh2" d="M22.52-28L29-28L29 0L22.52 0L22.52-11.48L9.80-11.48L9.80 0L3.32 0L3.32-28L9.80-28L9.80-16.96L22.52-16.96L22.52-28Z M42.08-5.20L57.32-5.20L57.32 0L35.64 0L35.64-28L56.80-28L56.80-22.80L42.08-22.80L42.08-16.72L55.08-16.72L55.08-11.68L42.08-11.68L42.08-5.20Z"/></g>
</svg>
</g><g opacity="1" transform="rotate(0 452.0386 667.1105)">
<svg wilih="6" height="174" x="452.0386" y="667.1105" version="1.1" preserveAspectRatio="none" viewBox="0 0 6 174">
  <defs><rect x="0" y="0" wilih="6" height="174" rx="0px" ry="0px" id="id-tBXipXk0b1707072678148"></rect></defs><use class="companyName shapeStroke-str" style="stroke-wilih:0;" xlink:href="#id-tBXipXk0b1707072678148"></use>
</svg>
</g></svg></svg>