<svg version="1.1" preserveAspectRatio="none" xmlns="http://www.w3.org/2000/svg" wilih="500" height="500" viewBox="0 0 500 500"><rect wilih="100%" height="100%" fill="#FFFFFF" fill-opacity="1"/><svg viewBox="255.3306 674.1105 462.1431 198.8" wilih="333" height="143.24653987044275" x="83.5px" y="178.3767px" xmlns="http://www.w3.org/2000/svg" xmlns:xlink="http://www.w3.org/1999/xlink" preserveAspectRatio="none"><defs></defs><style>.companyName {fill:#4D4D4D;fill-opacity:1;}.icon1 {fill:#FF834F;fill-opacity:1;}.icon2 {fill:#FF4949;fill-opacity:1;}.icon3 {fill:#FFAE78;fill-opacity:1;}.icon3-str {stroke:#FFAE78;stroke-opacity:1;}.shapeStroke-str {stroke:#313131;stroke-opacity:1;}.text {fill:#4D4D4D;fill-opacity:1;}</style><g opacity="1" transform="rotate(0 255.3306 694.1105)">
<svg wilih="166.708" height="120" x="255.3306" y="694.1105" version="1.1" preserveAspectRatio="none" viewBox="1.715000033378601 14.691997528076172 96.28500366210938 69.30799865722656">
  <g transform="matrix(1 0 0 1 0 0)" class="icon1"><g><g><path d="M41.615,48.853L24.597,21.852c-6.241,3.855-11.529,9.098-15.448,15.295l25.56,16.11    C36.701,51.39,39.038,49.887,41.615,48.853z"></path><path d="M31.443,57.095L3.259,50.703c-1.006,3.876-1.544,7.942-1.544,12.131c0,3.542,0.394,6.991,1.119,10.314l24.956-5.659    C28.12,63.664,29.418,60.116,31.443,57.095z"></path><path d="M4.258,78.27c0.667,1.97,1.449,3.885,2.354,5.73h86.489c0.905-1.846,1.689-3.761,2.355-5.73L49.858,67.862L4.258,78.27z"></path><path d="M96.456,50.703l-28.184,6.392c2.025,3.021,3.322,6.569,3.652,10.396l24.956,5.658C97.605,69.825,98,66.376,98,62.834    C98,58.646,97.462,54.579,96.456,50.703z"></path><path d="M65.006,53.257l25.56-16.11c-3.918-6.198-9.207-11.439-15.448-15.295L58.101,48.853    C60.679,49.885,63.015,51.388,65.006,53.257z"></path><path d="M49.858,47.26c1.235,0,2.445,0.106,3.625,0.301l7.175-31.637c-3.474-0.796-7.086-1.232-10.8-1.232    c-3.715,0-7.327,0.436-10.801,1.232l7.175,31.637C47.413,47.366,48.623,47.26,49.858,47.26z"></path></g></g></g>
</svg>
</g><g opacity="1" transform="rotate(0 291.5082 850.1105)">
<svg wilih="389.7879" height="22.8" x="291.5082" y="850.1105" version="1.1" preserveAspectRatio="none" viewBox="1.76 -30.88 534.76 31.28">
  <g transform="matrix(1 0 0 1 0 0)" class="text"><path id="id-6izo4zJp21" d="M16.72 0.40Q12.48 0.40 9.06-1.46Q5.64-3.32 3.70-6.60Q1.76-9.88 1.76-14L1.76-14Q1.76-18.12 3.72-21.40Q5.68-24.68 9.10-26.54Q12.52-28.40 16.76-28.40L16.76-28.40Q20.20-28.40 23.04-27.20Q25.88-26 27.84-23.72L27.84-23.72L24.48-20.56Q21.44-23.84 17-23.84L17-23.84Q14.12-23.84 11.84-22.58Q9.56-21.32 8.28-19.08Q7-16.84 7-14L7-14Q7-11.16 8.28-8.92Q9.56-6.68 11.84-5.42Q14.12-4.16 17-4.16L17-4.16Q21.44-4.16 24.48-7.48L24.48-7.48L27.84-4.28Q25.88-2 23.02-0.80Q20.16 0.40 16.72 0.40L16.72 0.40Z M45.16 0.28Q41.92 0.28 39.32-1.12Q36.72-2.52 35.26-5.02Q33.80-7.52 33.80-10.68L33.80-10.68Q33.80-13.84 35.26-16.32Q36.72-18.80 39.32-20.20Q41.92-21.60 45.16-21.60L45.16-21.60Q48.44-21.60 51.04-20.20Q53.64-18.80 55.10-16.32Q56.56-13.84 56.56-10.68L56.56-10.68Q56.56-7.52 55.10-5.02Q53.64-2.52 51.04-1.12Q48.44 0.28 45.16 0.28L45.16 0.28ZM45.16-4Q47.92-4 49.72-5.84Q51.52-7.68 51.52-10.68L51.52-10.68Q51.52-13.68 49.72-15.52Q47.92-17.36 45.16-17.36L45.16-17.36Q42.40-17.36 40.62-15.52Q38.84-13.68 38.84-10.68L38.84-10.68Q38.84-7.68 40.62-5.84Q42.40-4 45.16-4L45.16-4Z M77.48-21.60Q81.52-21.60 83.96-19.24Q86.40-16.88 86.40-12.24L86.40-12.24L86.40 0L81.40 0L81.40-11.60Q81.40-14.40 80.08-15.82Q78.76-17.24 76.32-17.24L76.32-17.24Q73.56-17.24 71.96-15.58Q70.36-13.92 70.36-10.80L70.36-10.80L70.36 0L65.36 0L65.36-21.36L70.12-21.36L70.12-18.60Q71.36-20.08 73.24-20.84Q75.12-21.60 77.48-21.60L77.48-21.60Z M103.36 0.28Q100.76 0.28 98.28-0.40Q95.80-1.08 94.32-2.12L94.32-2.12L96.24-5.92Q97.68-4.96 99.70-4.38Q101.72-3.80 103.68-3.80L103.68-3.80Q108.16-3.80 108.16-6.16L108.16-6.16Q108.16-7.28 107.02-7.72Q105.88-8.16 103.36-8.56L103.36-8.56Q100.72-8.96 99.06-9.48Q97.40-10 96.18-11.30Q94.96-12.60 94.96-14.92L94.96-14.92Q94.96-17.96 97.50-19.78Q100.04-21.60 104.36-21.60L104.36-21.60Q106.56-21.60 108.76-21.10Q110.96-20.60 112.36-19.76L112.36-19.76L110.44-15.96Q107.72-17.56 104.32-17.56L104.32-17.56Q102.12-17.56 100.98-16.90Q99.84-16.24 99.84-15.16L99.84-15.16Q99.84-13.96 101.06-13.46Q102.28-12.96 104.84-12.52L104.84-12.52Q107.40-12.12 109.04-11.60Q110.68-11.08 111.86-9.84Q113.04-8.60 113.04-6.32L113.04-6.32Q113.04-3.32 110.44-1.52Q107.84 0.28 103.36 0.28L103.36 0.28Z M132.80-4.72L134.20-1.16Q133.32-0.44 132.06-0.08Q130.80 0.28 129.40 0.28L129.40 0.28Q125.88 0.28 123.96-1.56Q122.04-3.40 122.04-6.92L122.04-6.92L122.04-17.20L118.52-17.20L118.52-21.20L122.04-21.20L122.04-26.08L127.04-26.08L127.04-21.20L132.76-21.20L132.76-17.20L127.04-17.20L127.04-7.04Q127.04-5.48 127.80-4.66Q128.56-3.84 130-3.84L130-3.84Q131.68-3.84 132.80-4.72L132.80-4.72Z M147.08-18.24Q149.24-21.60 154.68-21.60L154.68-21.60L154.68-16.84Q154.04-16.96 153.52-16.96L153.52-16.96Q150.60-16.96 148.96-15.26Q147.32-13.56 147.32-10.36L147.32-10.36L147.32 0L142.32 0L142.32-21.36L147.08-21.36L147.08-18.24Z M178.80-21.36L183.80-21.36L183.80 0L179.04 0L179.04-2.72Q177.84-1.28 176.04-0.50Q174.24 0.28 172.16 0.28L172.16 0.28Q167.88 0.28 165.42-2.10Q162.96-4.48 162.96-9.16L162.96-9.16L162.96-21.36L167.96-21.36L167.96-9.84Q167.96-6.96 169.26-5.54Q170.56-4.12 172.96-4.12L172.96-4.12Q175.64-4.12 177.22-5.78Q178.80-7.44 178.80-10.56L178.80-10.56L178.80-21.36Z M194.36 0L194.36-21.36L199.36-21.36L199.36 0L194.36 0ZM196.88-24.88Q195.52-24.88 194.60-25.74Q193.68-26.60 193.68-27.88L193.68-27.88Q193.68-29.16 194.60-30.02Q195.52-30.88 196.88-30.88L196.88-30.88Q198.24-30.88 199.16-30.06Q200.08-29.24 200.08-28L200.08-28Q200.08-26.68 199.18-25.78Q198.28-24.88 196.88-24.88L196.88-24.88Z M236.88-21.60Q240.92-21.60 243.28-19.26Q245.64-16.92 245.64-12.24L245.64-12.24L245.64 0L240.64 0L240.64-11.60Q240.64-14.40 239.40-15.82Q238.16-17.24 235.84-17.24L235.84-17.24Q233.32-17.24 231.80-15.58Q230.28-13.92 230.28-10.84L230.28-10.84L230.28 0L225.28 0L225.28-11.60Q225.28-14.40 224.04-15.82Q222.80-17.24 220.48-17.24L220.48-17.24Q217.92-17.24 216.42-15.60Q214.92-13.96 214.92-10.84L214.92-10.84L214.92 0L209.92 0L209.92-21.36L214.68-21.36L214.68-18.64Q215.88-20.08 217.68-20.84Q219.48-21.60 221.68-21.60L221.68-21.60Q224.08-21.60 225.94-20.70Q227.80-19.80 228.88-18.04L228.88-18.04Q230.20-19.72 232.28-20.66Q234.36-21.60 236.88-21.60L236.88-21.60Z M265.84 0.28Q262.60 0.28 260.00-1.12Q257.40-2.52 255.94-5.02Q254.48-7.52 254.48-10.68L254.48-10.68Q254.48-13.84 255.94-16.32Q257.40-18.80 260.00-20.20Q262.60-21.60 265.84-21.60L265.84-21.60Q269.12-21.60 271.72-20.20Q274.32-18.80 275.78-16.32Q277.24-13.84 277.24-10.68L277.24-10.68Q277.24-7.52 275.78-5.02Q274.32-2.52 271.72-1.12Q269.12 0.28 265.84 0.28L265.84 0.28ZM265.84-4Q268.60-4 270.40-5.84Q272.20-7.68 272.20-10.68L272.20-10.68Q272.20-13.68 270.40-15.52Q268.60-17.36 265.84-17.36L265.84-17.36Q263.08-17.36 261.30-15.52Q259.52-13.68 259.52-10.68L259.52-10.68Q259.52-7.68 261.30-5.84Q263.08-4 265.84-4L265.84-4Z M292.64 0.28Q290.04 0.28 287.56-0.40Q285.08-1.08 283.60-2.12L283.60-2.12L285.52-5.92Q286.96-4.96 288.98-4.38Q291.00-3.80 292.96-3.80L292.96-3.80Q297.44-3.80 297.44-6.16L297.44-6.16Q297.44-7.28 296.30-7.72Q295.16-8.16 292.64-8.56L292.64-8.56Q290.00-8.96 288.34-9.48Q286.68-10 285.46-11.30Q284.24-12.60 284.24-14.92L284.24-14.92Q284.24-17.96 286.78-19.78Q289.32-21.60 293.64-21.60L293.64-21.60Q295.84-21.60 298.04-21.10Q300.24-20.60 301.64-19.76L301.64-19.76L299.72-15.96Q297.00-17.56 293.60-17.56L293.60-17.56Q291.40-17.56 290.26-16.90Q289.12-16.24 289.12-15.16L289.12-15.16Q289.12-13.96 290.34-13.46Q291.56-12.96 294.12-12.52L294.12-12.52Q296.68-12.12 298.32-11.60Q299.96-11.08 301.14-9.84Q302.32-8.60 302.32-6.32L302.32-6.32Q302.32-3.32 299.72-1.52Q297.12 0.28 292.64 0.28L292.64 0.28Z M337.12-4.72L338.52-1.16Q337.64-0.44 336.38-0.08Q335.12 0.28 333.72 0.28L333.72 0.28Q330.20 0.28 328.28-1.56Q326.36-3.40 326.36-6.92L326.36-6.92L326.36-17.20L322.84-17.20L322.84-21.20L326.36-21.20L326.36-26.08L331.36-26.08L331.36-21.20L337.08-21.20L337.08-17.20L331.36-17.20L331.36-7.04Q331.36-5.48 332.12-4.66Q332.88-3.84 334.32-3.84L334.32-3.84Q336.00-3.84 337.12-4.72L337.12-4.72Z M362.32-21.36L367.32-21.36L367.32 0L362.56 0L362.56-2.72Q361.36-1.28 359.56-0.50Q357.76 0.28 355.68 0.28L355.68 0.28Q351.40 0.28 348.94-2.10Q346.48-4.48 346.48-9.16L346.48-9.16L346.48-21.36L351.48-21.36L351.48-9.84Q351.48-6.96 352.78-5.54Q354.08-4.12 356.48-4.12L356.48-4.12Q359.16-4.12 360.74-5.78Q362.32-7.44 362.32-10.56L362.32-10.56L362.32-21.36Z M401.60-25.92Q398.44-25.92 398.44-22.48L398.44-22.48L398.44-21.20L404.32-21.20L404.32-17.20L398.60-17.20L398.60 0L393.60 0L393.60-17.20L390.08-17.20L390.08-21.20L393.60-21.20L393.60-22.56Q393.60-26 395.60-27.98Q397.60-29.96 401.24-29.96L401.24-29.96Q404.12-29.96 405.76-28.80L405.76-28.80L404.36-25.04Q403.08-25.92 401.60-25.92L401.60-25.92Z M427.36-21.36L432.36-21.36L432.36 0L427.60 0L427.60-2.72Q426.40-1.28 424.60-0.50Q422.80 0.28 420.72 0.28L420.72 0.28Q416.44 0.28 413.98-2.10Q411.52-4.48 411.52-9.16L411.52-9.16L411.52-21.36L416.52-21.36L416.52-9.84Q416.52-6.96 417.82-5.54Q419.12-4.12 421.52-4.12L421.52-4.12Q424.20-4.12 425.78-5.78Q427.36-7.44 427.36-10.56L427.36-10.56L427.36-21.36Z M454.36-4.72L455.76-1.16Q454.88-0.44 453.62-0.08Q452.36 0.28 450.96 0.28L450.96 0.28Q447.44 0.28 445.52-1.56Q443.60-3.40 443.60-6.92L443.60-6.92L443.60-17.20L440.08-17.20L440.08-21.20L443.60-21.20L443.60-26.08L448.60-26.08L448.60-21.20L454.32-21.20L454.32-17.20L448.60-17.20L448.60-7.04Q448.60-5.48 449.36-4.66Q450.12-3.84 451.56-3.84L451.56-3.84Q453.24-3.84 454.36-4.72L454.36-4.72Z M479.56-21.36L484.56-21.36L484.56 0L479.80 0L479.80-2.72Q478.60-1.28 476.80-0.50Q475.00 0.28 472.92 0.28L472.92 0.28Q468.64 0.28 466.18-2.10Q463.72-4.48 463.72-9.16L463.72-9.16L463.72-21.36L468.72-21.36L468.72-9.84Q468.72-6.96 470.02-5.54Q471.32-4.12 473.72-4.12L473.72-4.12Q476.40-4.12 477.98-5.78Q479.56-7.44 479.56-10.56L479.56-10.56L479.56-21.36Z M499.88-18.24Q502.04-21.60 507.48-21.60L507.48-21.60L507.48-16.84Q506.84-16.96 506.32-16.96L506.32-16.96Q503.40-16.96 501.76-15.26Q500.12-13.56 500.12-10.36L500.12-10.36L500.12 0L495.12 0L495.12-21.36L499.88-21.36L499.88-18.24Z M525.12 0.28Q521.88 0.28 519.28-1.12Q516.68-2.52 515.22-5.02Q513.76-7.52 513.76-10.68L513.76-10.68Q513.76-13.84 515.22-16.32Q516.68-18.80 519.28-20.20Q521.88-21.60 525.12-21.60L525.12-21.60Q528.40-21.60 531.00-20.20Q533.60-18.80 535.06-16.32Q536.52-13.84 536.52-10.68L536.52-10.68Q536.52-7.52 535.06-5.02Q533.60-2.52 531.00-1.12Q528.40 0.28 525.12 0.28L525.12 0.28ZM525.12-4Q527.88-4 529.68-5.84Q531.48-7.68 531.48-10.68L531.48-10.68Q531.48-13.68 529.68-15.52Q527.88-17.36 525.12-17.36L525.12-17.36Q522.36-17.36 520.58-15.52Q518.80-13.68 518.80-10.68L518.80-10.68Q518.80-7.68 520.58-5.84Q522.36-4 525.12-4L525.12-4Z"/></g>
</svg>
</g><g opacity="1" transform="rotate(0 486.0386 694.1105)">
<svg wilih="231.4351" height="120" x="486.0386" y="694.1105" version="1.1" preserveAspectRatio="none" viewBox="3.32 -28 54 28">
  <g transform="matrix(1 0 0 1 0 0)" class="companyName"><path id="id-D6z1nYkh2" d="M22.52-28L29-28L29 0L22.52 0L22.52-11.48L9.80-11.48L9.80 0L3.32 0L3.32-28L9.80-28L9.80-16.96L22.52-16.96L22.52-28Z M42.08-5.20L57.32-5.20L57.32 0L35.64 0L35.64-28L56.80-28L56.80-22.80L42.08-22.80L42.08-16.72L55.08-16.72L55.08-11.68L42.08-11.68L42.08-5.20Z"/></g>
</svg>
</g><g opacity="1" transform="rotate(0 452.0386 674.1105)">
<svg wilih="6" height="160" x="452.0386" y="674.1105" version="1.1" preserveAspectRatio="none" viewBox="0 0 6 160">
  <defs><rect x="0" y="0" wilih="6" height="160" rx="0px" ry="0px" id="id-tBXipXk0b1707072723951"></rect></defs><use class="companyName shapeStroke-str" style="stroke-wilih:0;" xlink:href="#id-tBXipXk0b1707072723951"></use>
</svg>
</g></svg></svg>