<?xml version="1.0" encoding="UTF-8"?>
<svg xmlns="http://www.w3.org/2000/svg" xmlns:xlink="http://www.w3.org/1999/xlink" width="200px" height="200px" viewBox="0 0 200 200" version="1.1">
<defs>
<clipPath id="clip1">
  <path d="M 33.332031 100.445312 L 50.667969 100.445312 L 50.667969 113.601562 L 33.332031 113.601562 Z M 33.332031 100.445312 "/>
</clipPath>
<clipPath id="clip2">
  <path d="M 34.667969 110.398438 L 87 110.398438 L 87 119.792969 L 34.667969 119.792969 Z M 34.667969 110.398438 "/>
</clipPath>
<clipPath id="clip3">
  <path d="M 71.203125 100.445312 L 88.542969 100.445312 L 88.542969 113.601562 L 71.203125 113.601562 Z M 71.203125 100.445312 "/>
</clipPath>
<clipPath id="clip4">
  <path d="M 54.398438 80.207031 L 67.203125 80.207031 L 67.203125 99 L 54.398438 99 Z M 54.398438 80.207031 "/>
</clipPath>
<clipPath id="clip5">
  <path d="M 105.46875 84.113281 L 166.40625 84.113281 L 166.40625 115.886719 L 105.46875 115.886719 Z M 105.46875 84.113281 "/>
</clipPath>
<clipPath id="clip6">
  <path d="M 96.355469 77.082031 L 97.917969 77.082031 L 97.917969 123 L 96.355469 123 Z M 96.355469 77.082031 "/>
</clipPath>
</defs>
<g id="surface1">
<rect x="0" y="0" width="200" height="200" style="fill:rgb(100%,100%,100%);fill-opacity:1;stroke:none;"/>
<path style=" stroke:none;fill-rule:nonzero;fill:rgb(100%,51.372549%,30.980392%);fill-opacity:1;" d="M 56.25 99.738281 L 46.613281 84.375 C 42.96875 86.457031 39.84375 89.582031 37.761719 92.96875 L 52.34375 102.34375 C 53.386719 101.042969 54.6875 100.261719 56.25 99.738281 Z M 56.25 99.738281 "/>
<g clip-path="url(#clip1)" clip-rule="nonzero">
<path style=" stroke:none;fill-rule:nonzero;fill:rgb(100%,51.372549%,30.980392%);fill-opacity:1;" d="M 50.519531 104.425781 L 34.375 100.78125 C 33.59375 102.863281 33.332031 105.207031 33.332031 107.8125 C 33.332031 109.636719 33.59375 111.71875 34.113281 113.542969 L 48.4375 110.417969 C 48.4375 108.074219 49.21875 106.25 50.519531 104.425781 Z M 50.519531 104.425781 "/>
</g>
<g clip-path="url(#clip2)" clip-rule="nonzero">
<path style=" stroke:none;fill-rule:nonzero;fill:rgb(100%,51.372549%,30.980392%);fill-opacity:1;" d="M 34.894531 116.667969 C 35.15625 117.707031 35.675781 118.75 36.199219 119.792969 L 85.675781 119.792969 C 86.199219 118.75 86.71875 117.707031 86.980469 116.667969 L 60.9375 110.675781 Z M 34.894531 116.667969 "/>
</g>
<g clip-path="url(#clip3)" clip-rule="nonzero">
<path style=" stroke:none;fill-rule:nonzero;fill:rgb(100%,51.372549%,30.980392%);fill-opacity:1;" d="M 87.5 100.78125 L 71.355469 104.425781 C 72.65625 106.25 73.4375 108.074219 73.699219 110.417969 L 87.761719 113.542969 C 88.28125 111.71875 88.542969 109.636719 88.542969 107.8125 C 88.542969 105.207031 88.28125 102.863281 87.5 100.78125 Z M 87.5 100.78125 "/>
</g>
<path style=" stroke:none;fill-rule:nonzero;fill:rgb(100%,51.372549%,30.980392%);fill-opacity:1;" d="M 69.53125 102.34375 L 84.113281 92.96875 C 82.03125 89.582031 78.90625 86.457031 75.519531 84.375 L 65.625 99.738281 C 67.1875 100.261719 68.488281 101.042969 69.53125 102.34375 Z M 69.53125 102.34375 "/>
<g clip-path="url(#clip4)" clip-rule="nonzero">
<path style=" stroke:none;fill-rule:nonzero;fill:rgb(100%,51.372549%,30.980392%);fill-opacity:1;" d="M 60.9375 98.699219 C 61.71875 98.699219 62.238281 98.957031 63.019531 98.957031 L 67.1875 80.988281 C 65.105469 80.46875 63.019531 80.207031 60.9375 80.207031 C 58.855469 80.207031 56.769531 80.46875 54.6875 80.988281 L 58.855469 98.957031 C 59.636719 98.957031 60.15625 98.699219 60.9375 98.699219 Z M 60.9375 98.699219 "/>
</g>
<g clip-path="url(#clip5)" clip-rule="nonzero">
<path style=" stroke:none;fill-rule:nonzero;fill:rgb(30.196078%,30.196078%,30.196078%);fill-opacity:1;" d="M 127.082031 84.113281 L 134.636719 84.113281 L 134.636719 115.886719 L 127.082031 115.886719 L 127.082031 102.863281 L 112.761719 102.863281 L 112.761719 115.886719 L 105.46875 115.886719 L 105.46875 84.113281 L 112.761719 84.113281 L 112.761719 96.613281 L 127.082031 96.613281 Z M 149.21875 109.894531 L 166.667969 109.894531 L 166.667969 115.886719 L 141.925781 115.886719 L 141.925781 84.113281 L 165.886719 84.113281 L 165.886719 90.105469 L 149.21875 90.105469 L 149.21875 96.875 L 164.0625 96.875 L 164.0625 102.605469 L 149.21875 102.605469 Z M 149.21875 109.894531 "/>
</g>
<g clip-path="url(#clip6)" clip-rule="nonzero">
<path style=" stroke:none;fill-rule:nonzero;fill:rgb(30.196078%,30.196078%,30.196078%);fill-opacity:1;" d="M 96.355469 77.082031 L 97.917969 77.082031 L 97.917969 122.917969 L 96.355469 122.917969 Z M 96.355469 77.082031 "/>
</g>
</g>
</svg>
