<?xml version="1.0" encoding="UTF-8"?>
<svg xmlns="http://www.w3.org/2000/svg" xmlns:xlink="http://www.w3.org/1999/xlink" width="200px" height="200px" viewBox="0 0 200 200" version="1.1">
<defs>
<clipPath id="clip1">
  <path d="M 33.398438 95 L 49 95 L 49 107 L 33.398438 107 Z M 33.398438 95 "/>
</clipPath>
<clipPath id="clip2">
  <path d="M 34 103 L 81 103 L 81 111.699219 L 34 111.699219 Z M 34 103 "/>
</clipPath>
<clipPath id="clip3">
  <path d="M 66 95 L 81.449219 95 L 81.449219 107 L 66 107 Z M 66 95 "/>
</clipPath>
<clipPath id="clip4">
  <path d="M 52 77.113281 L 63 77.113281 L 63 94 L 52 94 Z M 52 77.113281 "/>
</clipPath>
<clipPath id="clip5">
  <path d="M 43.828125 122.078125 L 156.171875 122.078125 L 156.171875 128.648438 L 43.828125 128.648438 Z M 43.828125 122.078125 "/>
</clipPath>
<clipPath id="clip6">
  <path d="M 99.894531 77.113281 L 166.597656 77.113281 L 166.597656 111.699219 L 99.894531 111.699219 Z M 99.894531 77.113281 "/>
</clipPath>
<clipPath id="clip7">
  <path d="M 90.09375 71.351562 L 91.824219 71.351562 L 91.824219 117.46875 L 90.09375 117.46875 Z M 90.09375 71.351562 "/>
</clipPath>
</defs>
<g id="surface1">
<rect x="0" y="0" width="200" height="200" style="fill:rgb(100%,100%,100%);fill-opacity:1;stroke:none;"/>
<path style=" stroke:none;fill-rule:nonzero;fill:rgb(100%,51.372549%,30.980392%);fill-opacity:1;" d="M 53.3125 94.164062 L 44.820312 80.6875 C 41.703125 82.613281 39.066406 85.226562 37.109375 88.320312 L 49.863281 96.359375 C 50.859375 95.429688 52.023438 94.679688 53.3125 94.164062 Z M 53.3125 94.164062 "/>
<g clip-path="url(#clip1)" clip-rule="nonzero">
<path style=" stroke:none;fill-rule:nonzero;fill:rgb(100%,51.372549%,30.980392%);fill-opacity:1;" d="M 48.234375 98.277344 L 34.171875 95.085938 C 33.667969 97.019531 33.398438 99.050781 33.398438 101.140625 C 33.398438 102.90625 33.597656 104.628906 33.957031 106.285156 L 46.414062 103.460938 C 46.578125 101.554688 47.222656 99.78125 48.234375 98.277344 Z M 48.234375 98.277344 "/>
</g>
<g clip-path="url(#clip2)" clip-rule="nonzero">
<path style=" stroke:none;fill-rule:nonzero;fill:rgb(100%,51.372549%,30.980392%);fill-opacity:1;" d="M 34.667969 108.84375 C 35 109.824219 35.390625 110.78125 35.84375 111.703125 L 79.003906 111.703125 C 79.457031 110.78125 79.847656 109.824219 80.179688 108.84375 L 57.425781 103.648438 Z M 34.667969 108.84375 "/>
</g>
<g clip-path="url(#clip3)" clip-rule="nonzero">
<path style=" stroke:none;fill-rule:nonzero;fill:rgb(100%,51.372549%,30.980392%);fill-opacity:1;" d="M 80.679688 95.085938 L 66.613281 98.277344 C 67.625 99.78125 68.273438 101.554688 68.4375 103.464844 L 80.890625 106.285156 C 81.25 104.628906 81.449219 102.90625 81.449219 101.140625 C 81.449219 99.050781 81.179688 97.019531 80.679688 95.085938 Z M 80.679688 95.085938 "/>
</g>
<path style=" stroke:none;fill-rule:nonzero;fill:rgb(100%,51.372549%,30.980392%);fill-opacity:1;" d="M 64.984375 96.359375 L 77.738281 88.320312 C 75.785156 85.226562 73.144531 82.613281 70.03125 80.6875 L 61.539062 94.164062 C 62.824219 94.675781 63.992188 95.425781 64.984375 96.359375 Z M 64.984375 96.359375 "/>
<g clip-path="url(#clip4)" clip-rule="nonzero">
<path style=" stroke:none;fill-rule:nonzero;fill:rgb(100%,51.372549%,30.980392%);fill-opacity:1;" d="M 57.425781 93.367188 C 58.042969 93.367188 58.644531 93.421875 59.234375 93.519531 L 62.8125 77.730469 C 61.082031 77.332031 59.277344 77.113281 57.425781 77.113281 C 55.570312 77.113281 53.769531 77.332031 52.035156 77.730469 L 55.617188 93.519531 C 56.203125 93.421875 56.808594 93.367188 57.425781 93.367188 Z M 57.425781 93.367188 "/>
</g>
<g clip-path="url(#clip5)" clip-rule="nonzero">
<path style=" stroke:none;fill-rule:nonzero;fill:rgb(30.196078%,30.196078%,30.196078%);fill-opacity:1;" d="M 46.96875 128.648438 C 46.375 128.648438 45.839844 128.519531 45.359375 128.257812 C 44.882812 127.996094 44.507812 127.636719 44.234375 127.179688 C 43.964844 126.71875 43.828125 126.199219 43.828125 125.625 C 43.828125 125.046875 43.964844 124.527344 44.238281 124.070312 C 44.511719 123.609375 44.890625 123.25 45.371094 122.988281 C 45.847656 122.730469 46.382812 122.597656 46.976562 122.597656 C 47.460938 122.597656 47.898438 122.683594 48.296875 122.851562 C 48.695312 123.019531 49.03125 123.261719 49.304688 123.582031 L 48.601562 124.246094 C 48.175781 123.785156 47.652344 123.558594 47.027344 123.558594 C 46.625 123.558594 46.265625 123.644531 45.945312 123.820312 C 45.625 123.996094 45.375 124.242188 45.195312 124.558594 C 45.019531 124.871094 44.929688 125.226562 44.929688 125.625 C 44.929688 126.023438 45.019531 126.378906 45.195312 126.691406 C 45.375 127.003906 45.625 127.25 45.945312 127.425781 C 46.265625 127.601562 46.625 127.691406 47.027344 127.691406 C 47.652344 127.691406 48.175781 127.457031 48.601562 126.992188 L 49.304688 127.667969 C 49.03125 127.984375 48.695312 128.230469 48.292969 128.398438 C 47.894531 128.566406 47.453125 128.648438 46.96875 128.648438 Z M 52.945312 128.625 C 52.492188 128.625 52.082031 128.527344 51.71875 128.328125 C 51.355469 128.132812 51.070312 127.859375 50.863281 127.511719 C 50.660156 127.160156 50.558594 126.765625 50.558594 126.320312 C 50.558594 125.878906 50.660156 125.484375 50.863281 125.136719 C 51.070312 124.789062 51.355469 124.519531 51.71875 124.320312 C 52.082031 124.125 52.492188 124.027344 52.945312 124.027344 C 53.40625 124.027344 53.816406 124.125 54.179688 124.320312 C 54.542969 124.519531 54.828125 124.789062 55.03125 125.136719 C 55.238281 125.484375 55.339844 125.878906 55.339844 126.320312 C 55.339844 126.765625 55.238281 127.160156 55.03125 127.511719 C 54.828125 127.859375 54.542969 128.132812 54.179688 128.328125 C 53.816406 128.527344 53.40625 128.625 52.945312 128.625 Z M 52.945312 127.726562 C 53.332031 127.726562 53.652344 127.597656 53.902344 127.339844 C 54.15625 127.082031 54.28125 126.742188 54.28125 126.320312 C 54.28125 125.902344 54.15625 125.5625 53.902344 125.304688 C 53.652344 125.046875 53.332031 124.917969 52.945312 124.917969 C 52.558594 124.917969 52.242188 125.046875 51.992188 125.304688 C 51.742188 125.5625 51.617188 125.902344 51.617188 126.320312 C 51.617188 126.742188 51.742188 127.082031 51.992188 127.339844 C 52.242188 127.597656 52.558594 127.726562 52.945312 127.726562 Z M 59.734375 124.027344 C 60.300781 124.027344 60.753906 124.191406 61.097656 124.523438 C 61.4375 124.855469 61.609375 125.34375 61.609375 125.992188 L 61.609375 128.566406 L 60.558594 128.566406 L 60.558594 126.128906 C 60.558594 125.734375 60.464844 125.441406 60.28125 125.242188 C 60.097656 125.042969 59.832031 124.945312 59.492188 124.945312 C 59.105469 124.945312 58.800781 125.058594 58.574219 125.292969 C 58.351562 125.523438 58.238281 125.859375 58.238281 126.296875 L 58.238281 128.566406 L 57.1875 128.566406 L 57.1875 124.078125 L 58.1875 124.078125 L 58.1875 124.65625 C 58.363281 124.449219 58.582031 124.292969 58.84375 124.1875 C 59.109375 124.082031 59.40625 124.027344 59.734375 124.027344 Z M 65.171875 128.625 C 64.808594 128.625 64.453125 128.578125 64.105469 128.480469 C 63.757812 128.386719 63.480469 128.265625 63.273438 128.121094 L 63.675781 127.320312 C 63.878906 127.457031 64.121094 127.5625 64.402344 127.644531 C 64.6875 127.726562 64.964844 127.765625 65.238281 127.765625 C 65.867188 127.765625 66.179688 127.601562 66.179688 127.269531 C 66.179688 127.113281 66.101562 127.003906 65.941406 126.945312 C 65.78125 126.882812 65.523438 126.824219 65.171875 126.765625 C 64.800781 126.710938 64.5 126.644531 64.269531 126.574219 C 64.035156 126.5 63.835938 126.375 63.664062 126.191406 C 63.492188 126.007812 63.40625 125.753906 63.40625 125.429688 C 63.40625 125.003906 63.585938 124.664062 63.941406 124.410156 C 64.296875 124.15625 64.777344 124.027344 65.382812 124.027344 C 65.691406 124.027344 66 124.0625 66.304688 124.132812 C 66.613281 124.203125 66.867188 124.296875 67.0625 124.414062 L 66.660156 125.210938 C 66.277344 124.988281 65.851562 124.875 65.375 124.875 C 65.066406 124.875 64.832031 124.921875 64.671875 125.015625 C 64.511719 125.105469 64.433594 125.230469 64.433594 125.378906 C 64.433594 125.546875 64.519531 125.667969 64.6875 125.738281 C 64.859375 125.808594 65.125 125.875 65.484375 125.933594 C 65.839844 125.992188 66.136719 126.054688 66.363281 126.128906 C 66.59375 126.199219 66.792969 126.324219 66.957031 126.496094 C 67.121094 126.671875 67.207031 126.917969 67.207031 127.238281 C 67.207031 127.65625 67.023438 127.992188 66.660156 128.246094 C 66.296875 128.496094 65.800781 128.625 65.171875 128.625 Z M 71.355469 127.574219 L 71.652344 128.320312 C 71.527344 128.421875 71.378906 128.496094 71.203125 128.546875 C 71.023438 128.597656 70.839844 128.625 70.640625 128.625 C 70.148438 128.625 69.769531 128.496094 69.5 128.238281 C 69.230469 127.980469 69.097656 127.605469 69.097656 127.113281 L 69.097656 124.953125 L 68.355469 124.953125 L 68.355469 124.113281 L 69.097656 124.113281 L 69.097656 123.085938 L 70.148438 123.085938 L 70.148438 124.113281 L 71.347656 124.113281 L 71.347656 124.953125 L 70.148438 124.953125 L 70.148438 127.085938 C 70.148438 127.304688 70.199219 127.472656 70.304688 127.585938 C 70.414062 127.699219 70.566406 127.757812 70.769531 127.757812 C 71.003906 127.757812 71.199219 127.695312 71.355469 127.574219 Z M 74.355469 124.734375 C 74.660156 124.261719 75.191406 124.027344 75.953125 124.027344 L 75.953125 125.027344 C 75.863281 125.011719 75.78125 125.003906 75.710938 125.003906 C 75.300781 125.003906 74.980469 125.121094 74.75 125.359375 C 74.523438 125.597656 74.40625 125.941406 74.40625 126.390625 L 74.40625 128.566406 L 73.355469 128.566406 L 73.355469 124.078125 L 74.355469 124.078125 Z M 81.019531 124.078125 L 82.070312 124.078125 L 82.070312 128.566406 L 81.070312 128.566406 L 81.070312 127.992188 C 80.902344 128.195312 80.691406 128.351562 80.441406 128.460938 C 80.1875 128.570312 79.917969 128.625 79.625 128.625 C 79.027344 128.625 78.554688 128.457031 78.210938 128.125 C 77.867188 127.789062 77.691406 127.296875 77.691406 126.640625 L 77.691406 124.078125 L 78.742188 124.078125 L 78.742188 126.496094 C 78.742188 126.902344 78.835938 127.203125 79.015625 127.402344 C 79.199219 127.601562 79.457031 127.699219 79.792969 127.699219 C 80.167969 127.699219 80.46875 127.582031 80.6875 127.351562 C 80.910156 127.117188 81.019531 126.785156 81.019531 126.347656 Z M 84.289062 128.566406 L 84.289062 124.078125 L 85.339844 124.078125 L 85.339844 128.566406 Z M 84.820312 123.339844 C 84.628906 123.339844 84.46875 123.277344 84.339844 123.15625 C 84.210938 123.039062 84.148438 122.886719 84.148438 122.707031 C 84.148438 122.527344 84.210938 122.378906 84.339844 122.257812 C 84.46875 122.136719 84.628906 122.078125 84.820312 122.078125 C 85.007812 122.078125 85.167969 122.136719 85.296875 122.25 C 85.425781 122.363281 85.492188 122.507812 85.492188 122.683594 C 85.492188 122.867188 85.429688 123.023438 85.300781 123.148438 C 85.175781 123.273438 85.015625 123.339844 84.820312 123.339844 Z M 93.222656 124.027344 C 93.789062 124.027344 94.238281 124.191406 94.566406 124.519531 C 94.898438 124.847656 95.0625 125.339844 95.0625 125.992188 L 95.0625 128.566406 L 94.011719 128.566406 L 94.011719 126.128906 C 94.011719 125.734375 93.925781 125.441406 93.753906 125.242188 C 93.578125 125.042969 93.328125 124.945312 93.003906 124.945312 C 92.652344 124.945312 92.367188 125.058594 92.15625 125.292969 C 91.941406 125.523438 91.835938 125.855469 91.835938 126.289062 L 91.835938 128.566406 L 90.785156 128.566406 L 90.785156 126.128906 C 90.785156 125.734375 90.699219 125.441406 90.523438 125.242188 C 90.351562 125.042969 90.101562 124.945312 89.777344 124.945312 C 89.417969 124.945312 89.132812 125.058594 88.925781 125.289062 C 88.714844 125.519531 88.609375 125.851562 88.609375 126.289062 L 88.609375 128.566406 L 87.558594 128.566406 L 87.558594 124.078125 L 88.558594 124.078125 L 88.558594 124.648438 C 88.726562 124.449219 88.9375 124.292969 89.1875 124.1875 C 89.441406 124.082031 89.722656 124.027344 90.03125 124.027344 C 90.367188 124.027344 90.664062 124.089844 90.925781 124.214844 C 91.183594 124.34375 91.390625 124.527344 91.542969 124.773438 C 91.726562 124.539062 91.964844 124.355469 92.257812 124.226562 C 92.546875 124.09375 92.871094 124.027344 93.222656 124.027344 Z M 99.308594 128.625 C 98.851562 128.625 98.445312 128.527344 98.078125 128.328125 C 97.714844 128.132812 97.429688 127.859375 97.226562 127.511719 C 97.023438 127.160156 96.921875 126.765625 96.921875 126.320312 C 96.921875 125.878906 97.023438 125.484375 97.226562 125.136719 C 97.429688 124.789062 97.714844 124.519531 98.078125 124.320312 C 98.445312 124.125 98.851562 124.027344 99.308594 124.027344 C 99.765625 124.027344 100.179688 124.125 100.542969 124.320312 C 100.90625 124.519531 101.191406 124.789062 101.394531 125.136719 C 101.597656 125.484375 101.703125 125.878906 101.703125 126.320312 C 101.703125 126.765625 101.597656 127.160156 101.394531 127.511719 C 101.191406 127.859375 100.90625 128.132812 100.542969 128.328125 C 100.179688 128.527344 99.765625 128.625 99.308594 128.625 Z M 99.308594 127.726562 C 99.691406 127.726562 100.011719 127.597656 100.265625 127.339844 C 100.515625 127.082031 100.644531 126.742188 100.644531 126.320312 C 100.644531 125.902344 100.515625 125.5625 100.265625 125.304688 C 100.011719 125.046875 99.691406 124.917969 99.308594 124.917969 C 98.921875 124.917969 98.601562 125.046875 98.351562 125.304688 C 98.105469 125.5625 97.980469 125.902344 97.980469 126.320312 C 97.980469 126.742188 98.105469 127.082031 98.351562 127.339844 C 98.601562 127.597656 98.921875 127.726562 99.308594 127.726562 Z M 104.9375 128.625 C 104.574219 128.625 104.21875 128.578125 103.871094 128.480469 C 103.523438 128.386719 103.246094 128.265625 103.039062 128.121094 L 103.441406 127.320312 C 103.644531 127.457031 103.886719 127.5625 104.167969 127.644531 C 104.449219 127.726562 104.730469 127.765625 105.003906 127.765625 C 105.632812 127.765625 105.945312 127.601562 105.945312 127.269531 C 105.945312 127.113281 105.867188 127.003906 105.707031 126.945312 C 105.546875 126.882812 105.289062 126.824219 104.9375 126.765625 C 104.566406 126.710938 104.265625 126.644531 104.035156 126.574219 C 103.800781 126.5 103.597656 126.375 103.429688 126.191406 C 103.257812 126.007812 103.171875 125.753906 103.171875 125.429688 C 103.171875 125.003906 103.351562 124.664062 103.707031 124.410156 C 104.0625 124.15625 104.542969 124.027344 105.148438 124.027344 C 105.457031 124.027344 105.761719 124.0625 106.070312 124.132812 C 106.378906 124.203125 106.632812 124.296875 106.828125 124.414062 L 106.425781 125.210938 C 106.042969 124.988281 105.613281 124.875 105.140625 124.875 C 104.832031 124.875 104.597656 124.921875 104.4375 125.015625 C 104.277344 125.105469 104.199219 125.230469 104.199219 125.378906 C 104.199219 125.546875 104.28125 125.667969 104.453125 125.738281 C 104.625 125.808594 104.890625 125.875 105.246094 125.933594 C 105.605469 125.992188 105.902344 126.054688 106.128906 126.128906 C 106.359375 126.199219 106.558594 126.324219 106.722656 126.496094 C 106.886719 126.671875 106.96875 126.917969 106.96875 127.238281 C 106.96875 127.65625 106.789062 127.992188 106.425781 128.246094 C 106.058594 128.496094 105.566406 128.625 104.9375 128.625 Z M 114.28125 127.574219 L 114.574219 128.320312 C 114.453125 128.421875 114.300781 128.496094 114.125 128.546875 C 113.949219 128.597656 113.761719 128.625 113.566406 128.625 C 113.074219 128.625 112.695312 128.496094 112.425781 128.238281 C 112.15625 127.980469 112.019531 127.605469 112.019531 127.113281 L 112.019531 124.953125 L 111.28125 124.953125 L 111.28125 124.113281 L 112.019531 124.113281 L 112.019531 123.085938 L 113.070312 123.085938 L 113.070312 124.113281 L 114.273438 124.113281 L 114.273438 124.953125 L 113.070312 124.953125 L 113.070312 127.085938 C 113.070312 127.304688 113.125 127.472656 113.230469 127.585938 C 113.335938 127.699219 113.492188 127.757812 113.695312 127.757812 C 113.929688 127.757812 114.125 127.695312 114.28125 127.574219 Z M 119.574219 124.078125 L 120.625 124.078125 L 120.625 128.566406 L 119.625 128.566406 L 119.625 127.992188 C 119.457031 128.195312 119.25 128.351562 118.996094 128.460938 C 118.742188 128.570312 118.472656 128.625 118.179688 128.625 C 117.582031 128.625 117.109375 128.457031 116.765625 128.125 C 116.421875 127.789062 116.25 127.296875 116.25 126.640625 L 116.25 124.078125 L 117.296875 124.078125 L 117.296875 126.496094 C 117.296875 126.902344 117.390625 127.203125 117.570312 127.402344 C 117.753906 127.601562 118.011719 127.699219 118.347656 127.699219 C 118.722656 127.699219 119.023438 127.582031 119.242188 127.351562 C 119.464844 127.117188 119.574219 126.785156 119.574219 126.347656 Z M 127.828125 123.121094 C 127.386719 123.121094 127.164062 123.359375 127.164062 123.84375 L 127.164062 124.113281 L 128.398438 124.113281 L 128.398438 124.953125 L 127.199219 124.953125 L 127.199219 128.566406 L 126.148438 128.566406 L 126.148438 124.953125 L 125.40625 124.953125 L 125.40625 124.113281 L 126.148438 124.113281 L 126.148438 123.824219 C 126.148438 123.34375 126.289062 122.964844 126.566406 122.6875 C 126.847656 122.410156 127.242188 122.269531 127.753906 122.269531 C 128.15625 122.269531 128.472656 122.351562 128.703125 122.515625 L 128.40625 123.304688 C 128.230469 123.179688 128.035156 123.121094 127.828125 123.121094 Z M 133.238281 124.078125 L 134.289062 124.078125 L 134.289062 128.566406 L 133.289062 128.566406 L 133.289062 127.992188 C 133.121094 128.195312 132.910156 128.351562 132.660156 128.460938 C 132.40625 128.570312 132.136719 128.625 131.84375 128.625 C 131.246094 128.625 130.773438 128.457031 130.429688 128.125 C 130.085938 127.789062 129.910156 127.296875 129.910156 126.640625 L 129.910156 124.078125 L 130.960938 124.078125 L 130.960938 126.496094 C 130.960938 126.902344 131.054688 127.203125 131.234375 127.402344 C 131.417969 127.601562 131.675781 127.699219 132.011719 127.699219 C 132.386719 127.699219 132.6875 127.582031 132.90625 127.351562 C 133.128906 127.117188 133.238281 126.785156 133.238281 126.347656 Z M 138.914062 127.574219 L 139.207031 128.320312 C 139.082031 128.421875 138.933594 128.496094 138.757812 128.546875 C 138.582031 128.597656 138.394531 128.625 138.199219 128.625 C 137.703125 128.625 137.324219 128.496094 137.054688 128.238281 C 136.785156 127.980469 136.652344 127.605469 136.652344 127.113281 L 136.652344 124.953125 L 135.910156 124.953125 L 135.910156 124.113281 L 136.652344 124.113281 L 136.652344 123.085938 L 137.703125 123.085938 L 137.703125 124.113281 L 138.902344 124.113281 L 138.902344 124.953125 L 137.703125 124.953125 L 137.703125 127.085938 C 137.703125 127.304688 137.753906 127.472656 137.863281 127.585938 C 137.96875 127.699219 138.121094 127.757812 138.324219 127.757812 C 138.558594 127.757812 138.753906 127.695312 138.914062 127.574219 Z M 144.207031 124.078125 L 145.257812 124.078125 L 145.257812 128.566406 L 144.257812 128.566406 L 144.257812 127.992188 C 144.089844 128.195312 143.878906 128.351562 143.625 128.460938 C 143.375 128.570312 143.101562 128.625 142.8125 128.625 C 142.210938 128.625 141.738281 128.457031 141.394531 128.125 C 141.050781 127.789062 140.878906 127.296875 140.878906 126.640625 L 140.878906 124.078125 L 141.929688 124.078125 L 141.929688 126.496094 C 141.929688 126.902344 142.019531 127.203125 142.203125 127.402344 C 142.382812 127.601562 142.644531 127.699219 142.980469 127.699219 C 143.355469 127.699219 143.652344 127.582031 143.875 127.351562 C 144.09375 127.117188 144.207031 126.785156 144.207031 126.347656 Z M 148.476562 124.734375 C 148.777344 124.261719 149.308594 124.027344 150.070312 124.027344 L 150.070312 125.027344 C 149.980469 125.011719 149.902344 125.003906 149.828125 125.003906 C 149.417969 125.003906 149.101562 125.121094 148.871094 125.359375 C 148.640625 125.597656 148.527344 125.941406 148.527344 126.390625 L 148.527344 128.566406 L 147.476562 128.566406 L 147.476562 124.078125 L 148.476562 124.078125 Z M 153.777344 128.625 C 153.324219 128.625 152.914062 128.527344 152.550781 128.328125 C 152.1875 128.132812 151.902344 127.859375 151.699219 127.511719 C 151.492188 127.160156 151.390625 126.765625 151.390625 126.320312 C 151.390625 125.878906 151.492188 125.484375 151.699219 125.136719 C 151.902344 124.789062 152.1875 124.519531 152.550781 124.320312 C 152.914062 124.125 153.324219 124.027344 153.777344 124.027344 C 154.238281 124.027344 154.648438 124.125 155.011719 124.320312 C 155.378906 124.519531 155.660156 124.789062 155.867188 125.136719 C 156.070312 125.484375 156.171875 125.878906 156.171875 126.320312 C 156.171875 126.765625 156.070312 127.160156 155.867188 127.511719 C 155.660156 127.859375 155.378906 128.132812 155.011719 128.328125 C 154.648438 128.527344 154.238281 128.625 153.777344 128.625 Z M 153.777344 127.726562 C 154.164062 127.726562 154.484375 127.597656 154.734375 127.339844 C 154.988281 127.082031 155.113281 126.742188 155.113281 126.320312 C 155.113281 125.902344 154.988281 125.5625 154.734375 125.304688 C 154.484375 125.046875 154.164062 124.917969 153.777344 124.917969 C 153.390625 124.917969 153.074219 125.046875 152.824219 125.304688 C 152.574219 125.5625 152.449219 125.902344 152.449219 126.320312 C 152.449219 126.742188 152.574219 127.082031 152.824219 127.339844 C 153.074219 127.597656 153.390625 127.726562 153.777344 127.726562 Z M 153.777344 127.726562 "/>
</g>
<g clip-path="url(#clip6)" clip-rule="nonzero">
<path style=" stroke:none;fill-rule:nonzero;fill:rgb(30.196078%,30.196078%,30.196078%);fill-opacity:1;" d="M 123.613281 77.113281 L 131.617188 77.113281 L 131.617188 111.703125 L 123.613281 111.703125 L 123.613281 97.519531 L 107.898438 97.519531 L 107.898438 111.703125 L 99.894531 111.703125 L 99.894531 77.113281 L 107.898438 77.113281 L 107.898438 90.753906 L 123.613281 90.753906 Z M 147.773438 105.277344 L 166.601562 105.277344 L 166.601562 111.703125 L 139.820312 111.703125 L 139.820312 77.113281 L 165.957031 77.113281 L 165.957031 83.539062 L 147.773438 83.539062 L 147.773438 91.046875 L 163.832031 91.046875 L 163.832031 97.273438 L 147.773438 97.273438 Z M 147.773438 105.277344 "/>
</g>
<g clip-path="url(#clip7)" clip-rule="nonzero">
<path style=" stroke:none;fill-rule:nonzero;fill:rgb(30.196078%,30.196078%,30.196078%);fill-opacity:1;" d="M 90.09375 71.351562 L 91.824219 71.351562 L 91.824219 117.464844 L 90.09375 117.464844 Z M 90.09375 71.351562 "/>
</g>
</g>
</svg>
